<svg width="30" height="30" viewBox="0 0 30 30" fill="none" xmlns="http://www.w3.org/2000/svg">
<g clip-path="url(#clip0_16_7)">
<path fill-rule="evenodd" clip-rule="evenodd" d="M15 30C23.2843 30 30 23.2843 30 15C30 6.71573 23.2843 0 15 0C6.71573 0 0 6.71573 0 15C0 23.2843 6.71573 30 15 30Z" fill="#7288E2"/>
<path fill-rule="evenodd" clip-rule="evenodd" d="M20.5948 11.3653C20.9777 11.7481 20.9777 12.3689 20.5948 12.7518L14.7125 18.6341C14.3296 19.017 13.7088 19.017 13.326 18.6341L10.3848 15.6929C10.0019 15.3101 10.0019 14.6893 10.3848 14.3065C10.7677 13.9236 11.3884 13.9236 11.7713 14.3065L14.0192 16.5544L19.2083 11.3653C19.5912 10.9824 20.212 10.9824 20.5948 11.3653Z" fill="white"/>
</g>
<defs>
<clipPath id="clip0_16_7">
<rect width="30" height="30" fill="white"/>
</clipPath>
</defs>
</svg>
