<svg width="32" height="32" viewBox="0 0 32 32" fill="none" xmlns="http://www.w3.org/2000/svg">
<path d="M10 19.0001C6.1 19.0001 3 22.1001 3 26.0001V29.0001H16C17.3 29.0001 18.5 28.4001 19.2 27.4001L29 14.0001C27.9 12.9001 26.1 12.9001 24.9 13.9001L17 21.3001" stroke="#262626" stroke-width="2" stroke-linecap="round" stroke-linejoin="round"/>
<path d="M10 19H11H15C16.1 19 17 19.9 17 21C17 22.1 16.1 23 15 23H11" stroke="#262626" stroke-width="2" stroke-linecap="round" stroke-linejoin="round"/>
<path d="M13.5 16C15.433 16 17 14.433 17 12.5C17 10.567 15.433 9 13.5 9C11.567 9 10 10.567 10 12.5C10 14.433 11.567 16 13.5 16Z" fill="#7288E2"/>
<path d="M19 8C20.6569 8 22 6.65685 22 5C22 3.34315 20.6569 2 19 2C17.3431 2 16 3.34315 16 5C16 6.65685 17.3431 8 19 8Z" fill="#7288E2"/>
</svg>
