<svg width="32" height="32" viewBox="0 0 32 32" fill="none" xmlns="http://www.w3.org/2000/svg">
<path d="M6 29C7.65685 29 9 27.6569 9 26C9 24.3431 7.65685 23 6 23C4.34315 23 3 24.3431 3 26C3 27.6569 4.34315 29 6 29Z" fill="#7288E2" stroke="#7288E2" stroke-width="2" stroke-linecap="round" stroke-linejoin="round"/>
<path d="M6 19C7.65685 19 9 17.6569 9 16C9 14.3431 7.65685 13 6 13C4.34315 13 3 14.3431 3 16C3 17.6569 4.34315 19 6 19Z" stroke="#262626" stroke-width="2" stroke-linecap="round" stroke-linejoin="round"/>
<path d="M6 9C7.65685 9 9 7.65685 9 6C9 4.34315 7.65685 3 6 3C4.34315 3 3 4.34315 3 6C3 7.65685 4.34315 9 6 9Z" stroke="#262626" stroke-width="2" stroke-linecap="round" stroke-linejoin="round"/>
<path d="M13 6H29" stroke="#262626" stroke-width="2" stroke-linecap="round" stroke-linejoin="round"/>
<path d="M13 16H29" stroke="#262626" stroke-width="2" stroke-linecap="round" stroke-linejoin="round"/>
<path d="M13 26H29" stroke="#262626" stroke-width="2" stroke-linecap="round" stroke-linejoin="round"/>
</svg>
