<svg width="32" height="32" viewBox="0 0 32 32" fill="none" xmlns="http://www.w3.org/2000/svg">
<path d="M11 18C15.4183 18 19 14.4183 19 10C19 5.58172 15.4183 2 11 2C6.58172 2 3 5.58172 3 10C3 14.4183 6.58172 18 11 18Z" fill="white" stroke="#262626" stroke-width="2" stroke-linecap="round" stroke-linejoin="round"/>
<path d="M21 29C25.9706 29 30 24.9706 30 20C30 15.0294 25.9706 11 21 11C16.0294 11 12 15.0294 12 20C12 24.9706 16.0294 29 21 29Z" fill="#7288E2"/>
<path d="M21 14V16" stroke="white" stroke-width="2" stroke-linecap="round" stroke-linejoin="round"/>
<path d="M21 24V26" stroke="white" stroke-width="2" stroke-linecap="round" stroke-linejoin="round"/>
<path d="M21 20C19.9 20 19 19.1 19 18C19 16.9 19.9 16 21 16C21.7 16 22.2 16.3 22.6 16.8" stroke="white" stroke-width="2" stroke-linecap="round" stroke-linejoin="round"/>
<path d="M20.9999 20C22.0999 20 22.9999 20.9 22.9999 22C22.9999 23.1 22.0999 24 20.9999 24C20.2999 24 19.7999 23.7 19.3999 23.2" stroke="white" stroke-width="2" stroke-linecap="round" stroke-linejoin="round"/>
<path d="M13.8004 12.7999C12.2004 14.3999 9.70039 14.3999 8.10039 12.7999C6.50039 11.1999 6.50039 8.6999 8.10039 7.0999C9.70039 5.4999 12.2004 5.4999 13.8004 7.0999" stroke="#262626" stroke-width="2" stroke-linecap="round" stroke-linejoin="round"/>
<path d="M6 10H12" stroke="#262626" stroke-width="2" stroke-linecap="round" stroke-linejoin="round"/>
</svg>
