<svg width="40" height="40" viewBox="0 0 40 40" fill="none" xmlns="http://www.w3.org/2000/svg">
<path d="M20 11.25V22.5" stroke="#7288E2" stroke-width="2" stroke-linecap="round" stroke-linejoin="round"/>
<path d="M11.25 28.75H28.75V23.75H11.25V28.75Z" stroke="#262626" stroke-width="2" stroke-linecap="round" stroke-linejoin="round"/>
<path d="M13.75 28.75L15 36.25H25L26.25 28.75" stroke="#262626" stroke-width="2" stroke-linecap="round" stroke-linejoin="round"/>
<path d="M13.7499 15H12.7499C11.8749 15 11.2499 15.875 11.4999 16.625C12.1249 18.625 13.9999 20 16.2499 20H18.7499C18.7499 17.25 16.4999 15 13.7499 15Z" fill="#7288E2"/>
<path d="M26.25 12.5C23.5 12.5 21.25 14.75 21.25 17.5H23.75C26 17.5 27.875 16.125 28.5 14.125C28.75 13.375 28.125 12.5 27.25 12.5H26.25Z" fill="#7288E2"/>
<path d="M19.9999 11.25C24.3749 11.25 27.9999 8.125 28.6249 3.875C28.7499 3.125 28.1249 2.5 27.3749 2.5H12.6249C11.8749 2.5 11.2499 3.125 11.3749 3.875C11.9999 8.125 15.6249 11.25 19.9999 11.25Z" fill="#7288E2"/>
</svg>
