<svg width="40" height="40" viewBox="0 0 40 40" fill="none" xmlns="http://www.w3.org/2000/svg">
<path d="M7.5 36.25H31.25C33.375 36.25 35 34.625 35 32.5V3.75H17.5L10 11.25V33.75C10 35.125 8.875 36.25 7.5 36.25ZM7.5 36.25C6.125 36.25 5 35.125 5 33.75V21.25H8.75" stroke="#262626" stroke-width="2" stroke-linecap="round" stroke-linejoin="round"/>
<path d="M15 26.25H20" stroke="#262626" stroke-width="2" stroke-linecap="round" stroke-linejoin="round"/>
<path d="M15 31.25H30" stroke="#262626" stroke-width="2" stroke-linecap="round" stroke-linejoin="round"/>
<path d="M10 11.25H17.5V3.75" stroke="#262626" stroke-width="2" stroke-linecap="round" stroke-linejoin="round"/>
<path d="M29.375 15H26.25V11.875C26.25 10.875 25.375 10 24.375 10C23.375 10 22.5 10.875 22.5 11.875V15H19.375C18.375 15 17.5 15.875 17.5 16.875C17.5 17.875 18.375 18.75 19.375 18.75H22.5V21.875C22.5 22.875 23.375 23.75 24.375 23.75C25.375 23.75 26.25 22.875 26.25 21.875V18.75H29.375C30.375 18.75 31.25 17.875 31.25 16.875C31.25 15.875 30.375 15 29.375 15Z" fill="#7288E2"/>
</svg>
