<svg width="32" height="32" viewBox="0 0 32 32" fill="none" xmlns="http://www.w3.org/2000/svg">
<path d="M8 17L12 18C12 18 17 22 17 27V28C17 28 17 29 18 29C18 29 21 29 21 25V20H28C29.1 20 30 19.1 30 18C30 16.9 29.1 16 28 16H27C28.1 16 29 15.1 29 14C29 12.9 28.1 12 27 12H26C27.1 12 28 11.1 28 10C28 8.9 27.1 8 26 8H25C26.1 8 27 7.1 27 6C27 4.9 26.1 4 25 4H16C16 4 11 4 11 8" stroke="#262626" stroke-width="2" stroke-linecap="round" stroke-linejoin="round"/>
<path d="M4 3H11C11.6 3 12 3.4 12 4V19C12 19.6 11.6 20 11 20H4C3.4 20 3 19.6 3 19V4C3 3.4 3.4 3 4 3Z" fill="#7288E2"/>
<path d="M9 7C9.55228 7 10 6.55228 10 6C10 5.44772 9.55228 5 9 5C8.44772 5 8 5.44772 8 6C8 6.55228 8.44772 7 9 7Z" fill="white"/>
</svg>
