<svg width="40" height="40" viewBox="0 0 40 40" fill="none" xmlns="http://www.w3.org/2000/svg">
<path d="M12.5 20V8.75C12.5 7.375 13.625 6.25 15 6.25C16.375 6.25 17.5 7.375 17.5 8.75V16.25" stroke="#262626" stroke-width="2.5" stroke-linecap="round" stroke-linejoin="round"/>
<path d="M17.5 10V6.25C17.5 4.875 18.625 3.75 20 3.75C21.375 3.75 22.5 4.875 22.5 6.25V16.25" stroke="#262626" stroke-width="2.5" stroke-linecap="round" stroke-linejoin="round"/>
<path d="M22.5 10V6.25C22.5 4.875 23.625 3.75 25 3.75C26.375 3.75 27.5 4.875 27.5 6.25V16.25" stroke="#262626" stroke-width="2.5" stroke-linecap="round" stroke-linejoin="round"/>
<path d="M27.4998 13.75V10C27.4998 8.625 28.6248 7.5 29.9998 7.5C31.3748 7.5 32.4998 8.625 32.4998 10V20V24.625C32.4998 30.5 28.1248 35.75 22.2498 36.25C20.1248 36.375 17.9998 36 16.2498 35.125C14.2498 34.125 12.6248 32.5 11.6248 30.5L6.24981 20.875C5.62481 19.75 5.99981 18.25 7.12481 17.5C8.12481 16.875 9.49981 17 10.3748 17.875L12.4998 20" stroke="#262626" stroke-width="2.5" stroke-linecap="round" stroke-linejoin="round"/>
<path d="M21.25 20C22.625 20 23.875 20.5 24.75 21.5C25.75 22.5 26.25 23.75 26.25 25C26.25 26.25 25.75 27.625 24.75 28.5C23.875 29.5 22.625 30 21.25 30C19.875 30 18.625 29.5 17.75 28.5C16.75 27.625 16.25 26.375 16.25 25C16.25 23.625 16.75 22.375 17.75 21.5C18.625 20.5 19.875 20 21.25 20ZM21.25 17.5C19.375 17.5 17.375 18.25 16 19.75C13.125 22.625 13.125 27.375 16 30.375C17.5 31.875 19.375 32.625 21.25 32.625C23.125 32.625 25.125 31.875 26.5 30.375C29.375 27.5 29.375 22.75 26.5 19.75C25.125 18.25 23.125 17.5 21.25 17.5Z" fill="#7288E2"/>
<path d="M16.875 20.625L25.625 29.375" stroke="#7288E2" stroke-width="2.5"/>
</svg>
