<svg width="40" height="40" viewBox="0 0 40 40" fill="none" xmlns="http://www.w3.org/2000/svg">
<path d="M26.25 11.25V13.75" stroke="#7288E2" stroke-width="2.5" stroke-linecap="round" stroke-linejoin="round"/>
<path d="M26.25 23.75V26.25" stroke="#7288E2" stroke-width="2.5" stroke-linecap="round" stroke-linejoin="round"/>
<path d="M26.25 18.75C24.875 18.75 23.75 17.625 23.75 16.25C23.75 14.875 24.875 13.75 26.25 13.75C27.125 13.75 27.75 14.125 28.25 14.75" stroke="#7288E2" stroke-width="2.5" stroke-linecap="round" stroke-linejoin="round"/>
<path d="M26.25 18.75C27.625 18.75 28.75 19.875 28.75 21.25C28.75 22.625 27.625 23.75 26.25 23.75C25.375 23.75 24.75 23.375 24.25 22.75" stroke="#7288E2" stroke-width="2.5" stroke-linecap="round" stroke-linejoin="round"/>
<path d="M16.25 13.75H18.75" stroke="#262626" stroke-width="2.5" stroke-linecap="round" stroke-linejoin="round"/>
<path d="M16.25 18.75H18.75" stroke="#262626" stroke-width="2.5" stroke-linecap="round" stroke-linejoin="round"/>
<path d="M16.25 23.75H18.75" stroke="#262626" stroke-width="2.5" stroke-linecap="round" stroke-linejoin="round"/>
<path d="M16.25 8.75H18.75" stroke="#262626" stroke-width="2.5" stroke-linecap="round" stroke-linejoin="round"/>
<path d="M18.75 36.25L15 32.5L11.25 36.25V15" stroke="#262626" stroke-width="2.5" stroke-linecap="round" stroke-linejoin="round"/>
<path d="M8.75 3.75H30C32.125 3.75 33.75 5.375 33.75 7.5V36.25" stroke="#262626" stroke-width="2.5" stroke-linecap="round" stroke-linejoin="round"/>
<path d="M18.75 36.25L22.5 32.5L26.25 36.25" stroke="#262626" stroke-width="2.5" stroke-linecap="round" stroke-linejoin="round"/>
<path d="M26.25 36.25L30 32.5L33.75 36.25" stroke="#262626" stroke-width="2.5" stroke-linecap="round" stroke-linejoin="round"/>
<path d="M6.25 22.5L11.25 18.75V6.25C11.25 4.875 10.125 3.75 8.75 3.75C7.375 3.75 6.25 4.875 6.25 6.25V22.5Z" stroke="#262626" stroke-width="2.5" stroke-linecap="round" stroke-linejoin="round"/>
</svg>
