<svg width="32" height="32" viewBox="0 0 32 32" fill="none" xmlns="http://www.w3.org/2000/svg">
<path d="M26 29V3H12L6 9V29H26Z" stroke="#262626" stroke-width="2" stroke-linecap="round" stroke-linejoin="round"/>
<path d="M10 13H14" stroke="#262626" stroke-width="2" stroke-linecap="round" stroke-linejoin="round"/>
<path d="M10 17H14" stroke="#262626" stroke-width="2" stroke-linecap="round" stroke-linejoin="round"/>
<path d="M10 21H14" stroke="#262626" stroke-width="2" stroke-linecap="round" stroke-linejoin="round"/>
<path d="M6 9H12V3" stroke="#262626" stroke-width="2" stroke-linecap="round" stroke-linejoin="round"/>
<path d="M20 11V13" stroke="#7288E2" stroke-width="2" stroke-linecap="round" stroke-linejoin="round"/>
<path d="M20 21V23" stroke="#7288E2" stroke-width="2" stroke-linecap="round" stroke-linejoin="round"/>
<path d="M20 17C18.9 17 18 16.1 18 15C18 13.9 18.9 13 20 13C20.7 13 21.2 13.3 21.6 13.8" stroke="#7288E2" stroke-width="2" stroke-linecap="round" stroke-linejoin="round"/>
<path d="M20.0004 17C21.1004 17 22.0004 17.9 22.0004 19C22.0004 20.1 21.1004 21 20.0004 21C19.3004 21 18.8004 20.7 18.4004 20.2" stroke="#7288E2" stroke-width="2" stroke-linecap="round" stroke-linejoin="round"/>
</svg>
