<svg width="40" height="40" viewBox="0 0 40 40" fill="none" xmlns="http://www.w3.org/2000/svg">
<path d="M21.6248 20C24.041 20 25.9998 18.0412 25.9998 15.625C25.9998 13.2088 24.041 11.25 21.6248 11.25C19.2085 11.25 17.2498 13.2088 17.2498 15.625C17.2498 18.0412 19.2085 20 21.6248 20Z" fill="#7288E2"/>
<path d="M29.7498 10C31.8208 10 33.4998 8.32107 33.4998 6.25C33.4998 4.17893 31.8208 2.5 29.7498 2.5C27.6787 2.5 25.9998 4.17893 25.9998 6.25C25.9998 8.32107 27.6787 10 29.7498 10Z" fill="#7288E2"/>
<path d="M30.5 32.5C27.125 34.875 22.875 36.25 18.5 36.25C13.875 36.25 9.75 34.75 6.25 32.375" stroke="black" stroke-width="2" stroke-linecap="round" stroke-linejoin="round"/>
<path d="M9.74976 11.25L13.4998 23.75H25.9998" stroke="black" stroke-width="2" stroke-linecap="round" stroke-linejoin="round"/>
<path d="M13.4998 23.75L10.9998 33.75" stroke="black" stroke-width="2" stroke-linecap="round" stroke-linejoin="round"/>
<path d="M23.4998 23.75L25.9998 33.75" stroke="black" stroke-width="2" stroke-linecap="round" stroke-linejoin="round"/>
</svg>
