<svg width="40" height="40" viewBox="0 0 40 40" fill="none" xmlns="http://www.w3.org/2000/svg">
<path d="M30.876 15.875C30.876 9.875 26.001 5 20.001 5C14.001 5 9.12598 9.875 9.12598 15.875C9.12598 16.375 9.12598 16.75 9.25098 17.125C10.126 26.625 20.001 36.25 20.001 36.25C20.001 36.25 29.876 26.625 30.751 17.125C30.876 16.75 30.876 16.375 30.876 15.875Z" stroke="#262626" stroke-width="2.5" stroke-linecap="round" stroke-linejoin="round"/>
<path d="M20.001 21.25C22.7624 21.25 25.001 19.0114 25.001 16.25C25.001 13.4886 22.7624 11.25 20.001 11.25C17.2396 11.25 15.001 13.4886 15.001 16.25C15.001 19.0114 17.2396 21.25 20.001 21.25Z" fill="#7288E2"/>
<path d="M30.876 15.875C30.876 9.875 26.001 5 20.001 5C14.001 5 9.12598 9.875 9.12598 15.875C9.12598 16.375 9.12598 16.75 9.25098 17.125C10.126 26.625 20.001 36.25 20.001 36.25C20.001 36.25 29.876 26.625 30.751 17.125C30.876 16.75 30.876 16.375 30.876 15.875Z" stroke="#262626" stroke-width="2.5" stroke-linecap="round" stroke-linejoin="round"/>
<path d="M20.001 21.25C22.7624 21.25 25.001 19.0114 25.001 16.25C25.001 13.4886 22.7624 11.25 20.001 11.25C17.2396 11.25 15.001 13.4886 15.001 16.25C15.001 19.0114 17.2396 21.25 20.001 21.25Z" fill="#7288E2"/>
</svg>
