<svg width="40" height="40" viewBox="0 0 40 40" fill="none" xmlns="http://www.w3.org/2000/svg">
<path d="M12.5 11.25V6.25H20" stroke="#7288E2" stroke-width="2.5" stroke-linecap="round" stroke-linejoin="round"/>
<path d="M20 31.25H5C4.25 31.25 3.75 30.75 3.75 30V12.5C3.75 11.75 4.25 11.25 5 11.25H20V31.25Z" fill="#7288E2" stroke="#7288E2" stroke-width="2.5" stroke-linecap="round" stroke-linejoin="round"/>
<path d="M36.25 8.75H20V31.25H36.25V8.75Z" stroke="#262626" stroke-width="2.5" stroke-linecap="round" stroke-linejoin="round"/>
<path d="M28.75 12.5V15" stroke="#262626" stroke-width="2.5" stroke-linecap="round" stroke-linejoin="round"/>
<path d="M28.75 25V27.5" stroke="#262626" stroke-width="2.5" stroke-linecap="round" stroke-linejoin="round"/>
<path d="M28.75 20C27.375 20 26.25 18.875 26.25 17.5C26.25 16.125 27.375 15 28.75 15C29.625 15 30.25 15.375 30.75 16" stroke="#262626" stroke-width="2.5" stroke-linecap="round" stroke-linejoin="round"/>
<path d="M28.75 20C30.125 20 31.25 21.125 31.25 22.5C31.25 23.875 30.125 25 28.75 25C27.875 25 27.25 24.625 26.75 24" stroke="#262626" stroke-width="2.5" stroke-linecap="round" stroke-linejoin="round"/>
<path d="M20 3.75V36.25" stroke="#262626" stroke-width="2.5" stroke-linecap="round" stroke-linejoin="round"/>
</svg>
