<svg width="32" height="32" viewBox="0 0 32 32" fill="none" xmlns="http://www.w3.org/2000/svg">
<path d="M25 15L21 14C21 14 16 13 16 5V4C16 4 16 3 15 3C15 3 12 3 12 7V12H5C3.9 12 3 12.9 3 14C3 15.1 3.9 16 5 16H6C4.9 16 4 16.9 4 18C4 19.1 4.9 20 6 20H7C5.9 20 5 20.9 5 22C5 23.1 5.9 24 7 24H8C6.9 24 6 24.9 6 26C6 27.1 6.9 28 8 28H17C17 28 22 28 22 24" stroke="#262626" stroke-width="2" stroke-linecap="round" stroke-linejoin="round"/>
<path d="M29 29H22C21.4 29 21 28.6 21 28V13C21 12.4 21.4 12 22 12H29C29.6 12 30 12.4 30 13V28C30 28.6 29.6 29 29 29Z" fill="#7288E2"/>
<path d="M24 27C24.5523 27 25 26.5523 25 26C25 25.4477 24.5523 25 24 25C23.4477 25 23 25.4477 23 26C23 26.5523 23.4477 27 24 27Z" fill="white"/>
</svg>
